<svg xmlns="http://www.w3.org/2000/svg" xmlns:xlink="http://www.w3.org/1999/xlink" version="1.1" width="256" height="256" viewBox="0 0 256 256" xml:space="preserve">

<defs>
</defs>
<g style="stroke: none; stroke-width: 0; stroke-dasharray: none; stroke-linecap: butt; stroke-linejoin: miter; stroke-miterlimit: 10; fill: none; fill-rule: nonzero; opacity: 1;" transform="translate(1.4065934065934016 1.4065934065934016) scale(2.81 2.81)" >
	<path d="M 88.5 33.504 c 0.828 0 1.5 -0.671 1.5 -1.5 s -0.672 -1.5 -1.5 -1.5 h -4.934 v -9.997 H 88.5 c 0.828 0 1.5 -0.671 1.5 -1.5 s -0.672 -1.5 -1.5 -1.5 h -4.934 V 7.934 c 0 -0.829 -0.672 -1.5 -1.5 -1.5 H 7.934 c -0.829 0 -1.5 0.671 -1.5 1.5 v 9.573 H 1.5 c -0.829 0 -1.5 0.671 -1.5 1.5 s 0.671 1.5 1.5 1.5 h 4.934 v 9.997 H 1.5 c -0.829 0 -1.5 0.671 -1.5 1.5 s 0.671 1.5 1.5 1.5 h 4.934 V 43.5 H 1.5 C 0.671 43.5 0 44.171 0 45 s 0.671 1.5 1.5 1.5 h 4.934 v 9.996 H 1.5 c -0.829 0 -1.5 0.672 -1.5 1.5 s 0.671 1.5 1.5 1.5 h 4.934 v 9.996 H 1.5 c -0.829 0 -1.5 0.672 -1.5 1.5 s 0.671 1.5 1.5 1.5 h 4.934 v 9.574 c 0 0.828 0.671 1.5 1.5 1.5 h 9.573 V 88.5 c 0 0.828 0.671 1.5 1.5 1.5 s 1.5 -0.672 1.5 -1.5 v -4.934 h 9.997 V 88.5 c 0 0.828 0.671 1.5 1.5 1.5 s 1.5 -0.672 1.5 -1.5 v -4.934 H 43.5 V 88.5 c 0 0.828 0.671 1.5 1.5 1.5 s 1.5 -0.672 1.5 -1.5 v -4.934 h 9.996 V 88.5 c 0 0.828 0.672 1.5 1.5 1.5 s 1.5 -0.672 1.5 -1.5 v -4.934 h 9.996 V 88.5 c 0 0.828 0.672 1.5 1.5 1.5 s 1.5 -0.672 1.5 -1.5 v -4.934 h 9.574 c 0.828 0 1.5 -0.672 1.5 -1.5 v -9.574 H 88.5 c 0.828 0 1.5 -0.672 1.5 -1.5 s -0.672 -1.5 -1.5 -1.5 h -4.934 v -9.996 H 88.5 c 0.828 0 1.5 -0.672 1.5 -1.5 s -0.672 -1.5 -1.5 -1.5 h -4.934 V 46.5 H 88.5 c 0.828 0 1.5 -0.671 1.5 -1.5 s -0.672 -1.5 -1.5 -1.5 h -4.934 v -9.996 H 88.5 z" style="stroke: none; stroke-width: 1; stroke-dasharray: none; stroke-linecap: butt; stroke-linejoin: miter; stroke-miterlimit: 10; fill: rgb(124,132,232); fill-rule: nonzero; opacity: 1;" transform=" matrix(1 0 0 1 0 0) " stroke-linecap="round" />
	<path d="M 72.188 16.313 H 17.813 c -0.829 0 -1.5 0.671 -1.5 1.5 v 54.375 c 0 0.828 0.671 1.5 1.5 1.5 h 54.375 c 0.828 0 1.5 -0.672 1.5 -1.5 V 17.813 C 73.688 16.984 73.016 16.313 72.188 16.313 z" style="stroke: none; stroke-width: 1; stroke-dasharray: none; stroke-linecap: butt; stroke-linejoin: miter; stroke-miterlimit: 10; fill: rgb(57,50,108); fill-rule: nonzero; opacity: 1;" transform=" matrix(1 0 0 1 0 0) " stroke-linecap="round" />
	<path d="M 45 9.434 c -0.829 0 -1.5 -0.671 -1.5 -1.5 V 1.5 C 43.5 0.671 44.171 0 45 0 s 1.5 0.671 1.5 1.5 v 6.434 C 46.5 8.763 45.829 9.434 45 9.434 z" style="stroke: none; stroke-width: 1; stroke-dasharray: none; stroke-linecap: butt; stroke-linejoin: miter; stroke-miterlimit: 10; fill: rgb(124,132,232); fill-rule: nonzero; opacity: 1;" transform=" matrix(1 0 0 1 0 0) " stroke-linecap="round" />
	<path d="M 57.996 9.434 c -0.828 0 -1.5 -0.671 -1.5 -1.5 V 1.5 c 0 -0.829 0.672 -1.5 1.5 -1.5 s 1.5 0.671 1.5 1.5 v 6.434 C 59.496 8.763 58.824 9.434 57.996 9.434 z" style="stroke: none; stroke-width: 1; stroke-dasharray: none; stroke-linecap: butt; stroke-linejoin: miter; stroke-miterlimit: 10; fill: rgb(124,132,232); fill-rule: nonzero; opacity: 1;" transform=" matrix(1 0 0 1 0 0) " stroke-linecap="round" />
	<path d="M 70.992 9.434 c -0.828 0 -1.5 -0.671 -1.5 -1.5 V 1.5 c 0 -0.829 0.672 -1.5 1.5 -1.5 s 1.5 0.671 1.5 1.5 v 6.434 C 72.492 8.763 71.82 9.434 70.992 9.434 z" style="stroke: none; stroke-width: 1; stroke-dasharray: none; stroke-linecap: butt; stroke-linejoin: miter; stroke-miterlimit: 10; fill: rgb(124,132,232); fill-rule: nonzero; opacity: 1;" transform=" matrix(1 0 0 1 0 0) " stroke-linecap="round" />
	<path d="M 32.004 9.434 c -0.829 0 -1.5 -0.671 -1.5 -1.5 V 1.5 c 0 -0.829 0.671 -1.5 1.5 -1.5 s 1.5 0.671 1.5 1.5 v 6.434 C 33.504 8.763 32.833 9.434 32.004 9.434 z" style="stroke: none; stroke-width: 1; stroke-dasharray: none; stroke-linecap: butt; stroke-linejoin: miter; stroke-miterlimit: 10; fill: rgb(124,132,232); fill-rule: nonzero; opacity: 1;" transform=" matrix(1 0 0 1 0 0) " stroke-linecap="round" />
	<path d="M 19.007 9.434 c -0.829 0 -1.5 -0.671 -1.5 -1.5 V 1.5 c 0 -0.829 0.671 -1.5 1.5 -1.5 s 1.5 0.671 1.5 1.5 v 6.434 C 20.507 8.763 19.836 9.434 19.007 9.434 z" style="stroke: none; stroke-width: 1; stroke-dasharray: none; stroke-linecap: butt; stroke-linejoin: miter; stroke-miterlimit: 10; fill: rgb(124,132,232); fill-rule: nonzero; opacity: 1;" transform=" matrix(1 0 0 1 0 0) " stroke-linecap="round" />
	<path d="M 61.551 56.99 h -2.196 V 33.01 h 2.196 c 0.828 0 1.5 -0.671 1.5 -1.5 s -0.672 -1.5 -1.5 -1.5 h -7.392 c -0.828 0 -1.5 0.671 -1.5 1.5 s 0.672 1.5 1.5 1.5 h 2.195 v 23.98 h -2.195 c -0.828 0 -1.5 0.672 -1.5 1.5 s 0.672 1.5 1.5 1.5 h 7.392 c 0.828 0 1.5 -0.672 1.5 -1.5 S 62.379 56.99 61.551 56.99 z" style="stroke: none; stroke-width: 1; stroke-dasharray: none; stroke-linecap: butt; stroke-linejoin: miter; stroke-miterlimit: 10; fill: rgb(255,255,255); fill-rule: nonzero; opacity: 1;" transform=" matrix(1 0 0 1 0 0) " stroke-linecap="round" />
	<path d="M 39.051 30.992 c -0.217 -0.59 -0.779 -0.982 -1.408 -0.982 s -1.191 0.392 -1.408 0.982 l -9.925 26.98 c -0.286 0.777 0.112 1.64 0.89 1.926 c 0.171 0.063 0.346 0.092 0.518 0.092 c 0.611 0 1.185 -0.375 1.408 -0.982 l 3.908 -10.623 h 9.219 l 3.908 10.623 c 0.287 0.778 1.148 1.176 1.926 0.891 c 0.777 -0.286 1.176 -1.148 0.891 -1.926 L 39.051 30.992 z M 34.137 45.385 l 3.506 -9.53 l 3.506 9.53 H 34.137 z" style="stroke: none; stroke-width: 1; stroke-dasharray: none; stroke-linecap: butt; stroke-linejoin: miter; stroke-miterlimit: 10; fill: rgb(255,255,255); fill-rule: nonzero; opacity: 1;" transform=" matrix(1 0 0 1 0 0) " stroke-linecap="round" />
</g>
</svg>